<svg xmlns="http://www.w3.org/2000/svg" viewBox="0 0 1024 1024" width="1024" height="1024">
	<rect width="1024" height="1024" fill="#ffffff"/>
  <path d="M 495.500 127.666 C 432.518 130.693, 370.345 148.994, 317.378 180.099 C 290.064 196.138, 266.227 214.695, 242.419 238.454 C 144.058 336.609, 105.760 481.961, 143.546 613.705 C 155.115 654.039, 175.569 696.668, 199.703 730.742 C 237.720 784.416, 286.964 826.507, 346.651 856.343 C 401.872 883.948, 453.718 896.272, 514.500 896.242 C 565.952 896.216, 612.944 887.577, 657.500 869.952 C 703.482 851.763, 741.463 826.637, 777.535 790.543 C 832.905 735.139, 870.623 666.614, 886.540 592.500 C 895.624 550.204, 897.289 501.300, 891.072 459.363 C 885.960 424.870, 875.031 387.351, 861.258 357 C 857.655 349.061, 856.526 348.069, 850.356 347.420 C 843.584 346.708, 838.254 349.843, 835.681 356.052 C 833.808 360.569, 833.808 360.569, 838.272 371.035 C 851.875 402.927, 860.882 435.007, 865.547 468.190 C 867.733 483.737, 868.617 528.299, 867.066 544.755 C 860.668 612.637, 832.778 681.316, 788.926 737.180 L 785.252 741.861 784.721 728.180 C 784.103 712.234, 781.839 702.801, 773.861 682.939 L 768.816 670.378 774.213 662.855 C 780.891 653.548, 783.706 647.124, 785.700 636.637 C 788.515 621.840, 785.706 600.770, 778.474 582.426 C 776.972 578.617, 769.784 562.900, 762.501 547.500 C 737.395 494.414, 731.363 478.007, 727.954 453.534 C 722.564 414.826, 714.093 384.996, 701.112 359 C 688.054 332.850, 675.731 315.561, 656.566 296.500 C 641.634 281.650, 629.601 272.992, 611.500 264.076 C 588.706 252.847, 573.953 249.131, 549 248.330 C 525.448 247.575, 508.992 250.497, 491.238 258.588 C 487.088 260.479, 483.487 261.820, 483.234 261.568 C 482.982 261.316, 487.320 258.947, 492.873 256.305 C 498.426 253.662, 502.976 251.190, 502.985 250.811 C 503.015 249.457, 493.538 248.740, 483.108 249.306 C 441.902 251.544, 390.127 283.483, 362.674 323.599 C 344.031 350.841, 328.267 382.153, 318.671 411 C 314.574 423.317, 310.027 444.019, 309.937 450.766 C 309.893 454.045, 309.642 454.885, 309.119 453.500 C 308.705 452.400, 308.698 443.625, 309.104 434 C 309.915 414.758, 312.310 399.591, 317.158 383 C 321.675 367.541, 321.538 368.228, 319.738 370 C 313.691 375.951, 290.286 420.992, 283.103 440.500 C 270.815 473.872, 264.405 508.494, 265.164 537.394 C 265.479 549.371, 265.408 549.954, 264.013 546.830 C 262.527 543.500, 262.527 543.500, 262.201 547.844 C 261.510 557.071, 269.736 581.998, 276.520 591.235 C 279.911 595.852, 287.498 601.836, 288.583 600.750 C 288.882 600.451, 287.313 597.812, 285.098 594.885 C 280.312 588.561, 276.427 578.612, 274.874 568.694 C 272.569 553.987, 275.038 528.414, 280.347 512 C 281.728 507.729, 281.807 507.660, 281.901 510.653 C 282.080 516.357, 285.733 532.486, 289.020 542.078 C 294.856 559.114, 302.530 572.562, 312.094 582.513 C 315.952 586.527, 315.952 586.527, 313.549 598.013 C 309.015 619.688, 306.044 631.509, 303.499 638 C 295.061 659.527, 288.518 686.243, 287.361 703.897 C 286.346 719.387, 290.251 742.849, 295.548 753.094 C 297.330 756.539, 297.995 756.451, 284.500 754.569 C 279 753.802, 269.309 752.862, 262.965 752.481 C 251.430 751.787, 251.430 751.787, 242.216 741.144 C 194.483 686.005, 164.282 615.456, 157.025 542.144 C 155.702 528.777, 155.707 495.145, 157.034 481.856 C 162.546 426.672, 180.335 372.529, 208.390 325.551 C 245.881 262.772, 303.035 212.858, 370.500 183.977 C 392.061 174.747, 420.296 165.960, 442.500 161.571 C 481.463 153.868, 524.364 152.963, 564.141 159.002 C 603.555 164.987, 648.975 180.645, 681.659 199.516 C 688.484 203.456, 691.577 204.770, 691.881 203.857 C 692.121 203.137, 693.864 201.188, 695.754 199.524 C 697.644 197.861, 700.042 194.842, 701.082 192.816 C 702.122 190.790, 704.116 187.899, 705.513 186.392 C 706.909 184.885, 707.703 183.316, 707.276 182.906 C 704.637 180.370, 674.298 164.621, 661.157 158.966 C 618.643 140.669, 576.493 130.735, 529.929 128.038 C 513.225 127.071, 508.871 127.024, 495.500 127.666 M 792.640 157.746 C 792.344 159.811, 791.818 164.200, 791.471 167.500 C 790.428 177.421, 786.069 196.704, 782.875 205.533 C 773.655 231.012, 756.484 241.234, 712.120 247.651 C 706.837 248.415, 709.653 249.621, 719.870 250.971 C 738.747 253.465, 756.275 259.627, 767.105 267.577 C 773.347 272.159, 779.977 282.793, 783.890 294.500 C 786.744 303.037, 791.008 323.645, 792.544 336.325 C 792.932 339.529, 793.573 341.779, 793.970 341.325 C 794.366 340.871, 795.453 334.875, 796.385 328 C 800.290 299.195, 807.989 278.581, 818.215 269.548 C 828.231 260.700, 846.026 253.933, 867.060 250.974 C 871.702 250.321, 876.162 249.586, 876.972 249.340 C 879.506 248.570, 876.026 247.033, 871.708 247.015 C 866.528 246.994, 854.152 244.423, 844.500 241.363 C 826.447 235.638, 814.348 226.479, 808.356 214 C 802.303 201.395, 797.333 181.457, 795.449 162.228 C 794.648 154.048, 793.444 152.127, 792.640 157.746 M 481.500 231.062 C 393.450 237.207, 313.272 299.004, 280.071 386.312 C 275.781 397.596, 270.559 414.892, 271.238 415.571 C 271.470 415.804, 272.618 413.858, 273.788 411.247 C 274.957 408.636, 279.118 399.300, 283.034 390.500 C 292.037 370.266, 298.190 358.681, 307.588 344.268 C 331.137 308.150, 360.975 280.603, 397.113 261.616 C 440.350 238.899, 484.415 231.857, 541.500 238.544 C 549.670 239.502, 544.499 237.227, 532.235 234.470 C 523.448 232.494, 497.387 229.587, 493.500 230.149 C 492.950 230.229, 487.550 230.640, 481.500 231.062 M 391.349 323.750 C 382.673 334.649, 374.665 349.159, 370.515 361.500 C 368.072 368.764, 362.306 391.750, 361.609 397 C 361.175 400.267, 361.653 399.309, 363.353 393.500 C 368.348 376.430, 380.498 347.275, 390.128 329.250 C 392.846 324.163, 394.905 320, 394.702 320 C 394.500 320, 392.991 321.688, 391.349 323.750 M 366.196 330.479 C 359.384 336.231, 351.283 350.786, 349.561 360.366 C 348.866 364.232, 348.866 364.232, 351.816 362.131 C 357.013 358.430, 361.154 352.859, 365.706 343.443 C 368.830 336.983, 370.050 333.286, 369.823 330.974 C 369.500 327.689, 369.500 327.689, 366.196 330.479 M 434.729 336.671 C 433.205 340.066, 431.055 346.366, 429.951 350.671 C 427.769 359.180, 425.653 380.492, 426.194 388.500 C 426.530 393.481, 426.534 393.473, 427.278 386.500 C 428.428 375.723, 430.951 365.333, 433.072 362.636 C 436.183 358.681, 438.113 349.142, 437.790 339.320 L 437.500 330.500 434.729 336.671 M 621.769 375.750 C 620.921 376.712, 618.994 379.975, 617.486 383 C 615.979 386.025, 614.352 388.650, 613.872 388.833 C 613.393 389.017, 613 390.056, 613 391.144 C 613 393.020, 612.528 393.086, 603.694 392.438 C 595.690 391.850, 594.151 391.991, 592.694 393.449 C 589.296 396.847, 590.908 401.025, 600.069 412.570 L 604.885 418.640 601.800 427.959 C 598.190 438.866, 598.554 443.353, 603.259 445.967 C 605.849 447.406, 606.604 447.296, 615.561 444.172 L 625.104 440.844 632.499 447.869 C 636.567 451.733, 641.303 455.622, 643.023 456.512 C 645.886 457.992, 646.359 457.995, 648.576 456.542 C 651.522 454.612, 651.701 451.109, 649.445 439.500 C 647.890 431.500, 647.890 431.500, 651.691 428.500 C 662.876 419.673, 665.211 415.361, 660.947 411.405 C 659.818 410.357, 654.834 407.475, 649.873 405 C 640.852 400.500, 640.852 400.500, 636.635 389.893 C 631.204 376.236, 629.727 374, 626.132 374 C 624.580 374, 622.617 374.788, 621.769 375.750 M 471.247 409.235 C 469.504 425.282, 468.223 438.556, 468.400 438.733 C 468.577 438.910, 472.797 437.690, 477.778 436.021 C 482.760 434.352, 489.572 432.700, 492.918 432.351 C 496.263 432.001, 499 431.600, 499 431.460 C 499 431.319, 497.263 428.345, 495.139 424.849 C 489.295 415.230, 485.194 406.796, 479.544 392.779 L 474.417 380.059 471.247 409.235 M 622.693 398.104 C 620.060 404.209, 620.060 404.209, 613.030 403.503 C 604.496 402.646, 604.364 403.049, 610.500 411.212 C 615.465 417.817, 615.514 418.054, 613.569 426.188 C 612.821 429.316, 612.425 432.092, 612.689 432.355 C 612.952 432.619, 615.676 431.972, 618.740 430.917 C 621.805 429.863, 624.687 429, 625.143 429 C 625.600 429, 628.857 431.447, 632.383 434.437 C 635.908 437.428, 638.992 439.675, 639.236 439.430 C 639.481 439.186, 639.329 436.852, 638.900 434.243 C 637.273 424.360, 637.515 423.520, 643 420 C 645.750 418.235, 648 416.487, 648 416.115 C 648 415.743, 644.737 413.814, 640.750 411.829 C 633.500 408.219, 633.500 408.219, 630.547 400.109 C 628.924 395.649, 627.085 392, 626.461 392 C 625.838 392, 624.142 394.747, 622.693 398.104 M 524.034 418.257 C 524.015 418.673, 525.575 422.996, 527.500 427.864 C 529.425 432.732, 531 437.008, 531 437.365 C 531 437.723, 533.240 442.981, 535.978 449.049 C 541.506 461.302, 547.742 471.483, 553.354 477.422 C 555.541 479.736, 556.633 481.609, 556.017 481.989 C 555.117 482.546, 568.681 492, 570.379 492 C 570.721 492, 571 490.383, 571 488.407 C 571 485.313, 569.943 483.679, 563.402 476.657 C 551.236 463.595, 538.993 445.939, 529.315 427.500 C 526.429 422, 524.052 417.841, 524.034 418.257 M 269.293 424.226 C 267.403 426.655, 261.186 442.544, 258.621 451.500 C 250.878 478.540, 250.377 510.608, 257.435 527.498 C 258.912 531.035, 261.566 532.490, 260.628 529.250 C 258.993 523.600, 257.664 509.731, 257.633 498 C 257.593 482.573, 258.719 475.456, 266.075 444.612 C 268.815 433.123, 270.883 423.550, 270.671 423.337 C 270.459 423.125, 269.839 423.525, 269.293 424.226 M 377.697 442.115 C 376.771 447.299, 375.723 454.979, 375.367 459.182 C 374.738 466.623, 374.782 466.833, 377.032 467.162 C 380.336 467.645, 380.793 470, 377.583 470 C 375 470, 375 470, 375 480.316 C 375 490.301, 376.086 499.259, 378.057 505.530 C 378.910 508.241, 379.739 508.747, 385.957 510.349 C 398.066 513.469, 410.764 523.722, 411.620 531.072 C 411.808 532.685, 412.836 535.718, 413.904 537.812 C 418.988 547.777, 420.692 564.158, 416.994 567.506 C 414.375 569.875, 413.755 569.108, 415.199 565.285 C 416.171 562.709, 416.076 561.765, 414.623 559.547 C 413.666 558.087, 412.122 556.659, 411.192 556.373 C 410.261 556.088, 408.729 555.443, 407.787 554.942 C 406.484 554.248, 406.207 554.375, 406.628 555.473 C 406.933 556.268, 406.629 558.593, 405.953 560.641 C 404.765 564.243, 404.833 564.461, 408.033 567.321 C 411.174 570.127, 411.247 570.346, 409.480 571.639 C 406.764 573.624, 404.235 573.307, 402.900 570.813 C 402.256 569.610, 400.862 567.698, 399.801 566.563 C 394.638 561.040, 386 544.973, 386 540.893 C 386 539.695, 387.292 538.487, 389.609 537.519 C 392.215 536.430, 393.049 535.570, 392.609 534.424 C 392.274 533.551, 392 532.648, 392 532.418 C 392 531.315, 388.444 532.193, 386.768 533.710 C 384.166 536.065, 383.035 534.113, 383.015 527.231 C 383 521.994, 382.983 521.966, 380.250 522.612 C 371.079 524.781, 368.877 534.684, 374.505 548.448 C 375.843 551.719, 376.713 554.621, 376.438 554.895 C 376.163 555.170, 373.815 552.952, 371.219 549.967 C 361.770 539.097, 361.619 538.966, 359.332 539.594 C 357.184 540.185, 357.192 540.237, 360.271 545.345 C 375.548 570.697, 379.931 580.159, 383.921 596.395 C 386.560 607.134, 388.814 611.758, 394.320 617.731 C 403.661 627.865, 417.347 634.750, 448.500 644.989 C 467.500 651.233, 467.500 651.233, 475.500 649.530 C 488.200 646.827, 509.451 639.400, 522.650 633.053 C 535.653 626.800, 543.347 621.954, 552.922 613.985 C 558.285 609.522, 559.143 608.276, 561.006 602.246 C 563.368 594.598, 568.314 570.980, 567.684 570.351 C 567.457 570.124, 566.463 571.189, 565.475 572.719 C 560.289 580.749, 540.257 598.591, 538.453 596.786 C 538.202 596.535, 539.694 594.545, 541.769 592.364 C 557.130 576.216, 567.956 545.158, 569.607 512.500 C 570.228 500.219, 570.129 500.195, 564.445 511.250 C 562.537 514.962, 560.606 518, 560.155 518 C 559.704 518, 559.537 515.575, 559.782 512.612 C 560.368 505.546, 558.763 501.024, 554.684 498.250 C 552.865 497.012, 551.116 496, 550.798 496 C 550.479 496, 550.886 498.276, 551.701 501.057 C 554.156 509.431, 553.152 524.011, 549.586 531.777 C 546.532 538.426, 541.233 544, 537.965 544 C 535.424 544, 535.486 543.605, 538.500 540.591 C 541.522 537.569, 541.619 536.057, 539.005 532.734 C 537.552 530.887, 537.160 529.288, 537.561 526.849 C 538.111 523.500, 538.111 523.500, 536.524 526.250 C 534.481 529.788, 529.848 530.046, 527.534 526.750 C 525.978 524.534, 525.964 524.548, 526.592 527.697 C 527.056 530.029, 526.657 531.819, 525.114 534.315 C 522.153 539.107, 522.451 540.668, 526.750 542.892 C 530.500 544.831, 530.500 544.831, 527.685 545.916 C 522.223 548.019, 519.749 547.261, 516.158 542.381 C 510.304 534.427, 505.089 519.948, 505.017 511.450 C 504.990 508.264, 506.827 506.964, 509.582 508.219 C 513.016 509.784, 517.234 506.852, 516.810 503.196 C 516.388 499.546, 513.663 499.257, 509.514 502.422 C 507.649 503.844, 505.924 504.669, 505.682 504.254 C 505.439 503.839, 505.822 501.250, 506.532 498.500 C 507.242 495.750, 507.675 493.350, 507.495 493.166 C 506.673 492.332, 497.739 497.275, 490 502.846 C 485.325 506.210, 481.360 508.552, 481.189 508.048 C 481.018 507.545, 482.468 503.691, 484.412 499.484 C 487.947 491.834, 487.947 491.834, 484.347 493.958 C 482.368 495.126, 480.562 495.895, 480.335 495.668 C 480.108 495.441, 482.244 492.981, 485.082 490.202 C 498.462 477.101, 518.578 472.542, 540.812 477.572 C 544.284 478.357, 547.406 479, 547.750 479 C 548.094 479, 544.397 476.286, 539.535 472.968 C 527.412 464.695, 518.857 456.890, 510 446.022 C 502.500 436.819, 502.500 436.819, 496 437.455 C 488.249 438.214, 479.405 440.330, 472.372 443.108 C 467.243 445.134, 467.243 445.134, 466.567 451.317 C 464.501 470.193, 459.834 494.168, 458.487 492.821 C 458.236 492.569, 457.550 488.794, 456.962 484.432 C 456.375 480.069, 454.967 471.572, 453.834 465.550 C 452.702 459.527, 451.199 449.852, 450.496 444.050 C 449.217 433.500, 449.217 433.500, 449.122 451.500 C 449.048 465.483, 449.443 471.508, 450.894 478.500 C 453.091 489.092, 457.773 501.674, 461.993 508.328 C 463.647 510.936, 465 513.331, 465 513.651 C 465 514.548, 452.212 513.034, 445.500 511.342 C 436.788 509.146, 427.005 503.652, 419.317 496.638 L 412.590 490.500 416.845 498.419 C 419.185 502.774, 422.438 508.028, 424.075 510.094 C 425.711 512.160, 426.701 514.066, 426.275 514.328 C 424.936 515.152, 415.199 508.014, 410.340 502.646 C 397.961 488.970, 386.790 465.621, 381.609 442.595 L 379.380 432.690 377.697 442.115 M 350.228 450.500 C 346.930 469.382, 346.318 476.511, 348.093 475.371 C 348.867 474.874, 351.095 473.472, 353.045 472.256 C 356.590 470.044, 356.590 470.044, 355.314 460.272 C 354.611 454.897, 353.691 447.575, 353.268 444 C 352.498 437.500, 352.498 437.500, 350.228 450.500 M 496.270 472.054 C 487.324 473.820, 478 479.630, 478 483.439 C 478 484.523, 479.864 483.718, 484.409 480.670 C 487.934 478.306, 493.544 475.546, 496.876 474.537 C 500.208 473.529, 502.698 472.320, 502.408 471.852 C 502.119 471.383, 501.571 471.049, 501.191 471.110 C 500.811 471.170, 498.596 471.595, 496.270 472.054 M 351.500 478.794 C 346.500 482.577, 346.500 482.577, 346.197 492.039 C 345.688 507.939, 347.481 520.337, 351.522 528.867 C 354.416 534.974, 355.257 536.031, 356.442 535.048 C 357.228 534.396, 358.159 532.430, 358.510 530.681 C 358.862 528.931, 359.361 526.744, 359.620 525.821 C 359.964 524.591, 359.341 524.036, 357.295 523.746 C 354.500 523.350, 354.500 523.350, 357.607 522.127 C 361.503 520.593, 364.124 516.313, 361.979 514.987 C 360.902 514.321, 361.653 513.604, 365.025 512.074 C 367.486 510.957, 370.063 510.034, 370.750 510.022 C 372.478 509.992, 372.521 510.125, 367.612 500.291 C 365.199 495.456, 362 487.788, 360.505 483.250 C 359.009 478.712, 357.497 475.002, 357.143 475.005 C 356.789 475.008, 354.250 476.713, 351.500 478.794 M 628.250 502.745 C 625.852 503.939, 624.998 505.036, 624.991 506.931 C 624.987 508.344, 624.702 511.975, 624.360 515 C 623.737 520.500, 623.737 520.500, 627.118 517.370 C 631.333 513.469, 634.729 511.682, 636.578 512.392 C 638.808 513.247, 638.270 514.400, 634.750 516.301 C 627.243 520.356, 619.714 530, 624.056 530 C 624.637 530, 626.031 532.076, 627.153 534.613 C 630.664 542.550, 627.474 552.585, 620.354 556 C 617.483 557.377, 616.919 558.526, 613.488 570 C 600.280 614.159, 587.116 638.383, 562.446 663.917 C 556.814 669.746, 547.817 677.662, 542.453 681.508 C 526.300 693.088, 514.030 703.301, 503.817 713.670 C 494.745 722.878, 463.850 759.130, 464.493 759.810 C 464.997 760.343, 501.186 741.130, 537.500 721.051 C 572.593 701.647, 581.317 698.222, 598.042 697.287 C 605.719 696.857, 609.238 697.166, 616.042 698.866 C 633.681 703.274, 655.987 716.973, 673.685 734.267 C 679.908 740.348, 685 745.082, 685 744.786 C 685 744.491, 682.479 739.131, 679.397 732.875 C 671.166 716.164, 663.984 705.795, 652.408 693.908 C 643.813 685.082, 641.497 682.007, 638.512 675.457 C 633.378 664.191, 630.935 661.355, 624.791 659.531 C 615.570 656.792, 596.677 658.139, 581.176 662.639 C 578.248 663.489, 575.609 663.943, 575.313 663.646 C 574.346 662.679, 581.353 659.001, 588.131 656.917 C 594.761 654.878, 594.761 654.878, 592.925 650.045 C 591.915 647.387, 590.545 642.261, 589.880 638.653 C 588.709 632.298, 588.752 631.973, 591.254 628.193 C 598.935 616.585, 608.120 594.815, 611.556 580.069 C 613.372 572.280, 614.332 571, 618.358 571 C 626.522 571, 642.994 558.033, 649.073 546.820 C 652.329 540.815, 652.500 539.999, 652.500 530.448 C 652.500 520.807, 652.343 520.079, 648.662 512.630 C 643.173 501.523, 636.854 498.464, 628.250 502.745 M 383.614 502.815 C 383.316 503.298, 385.643 504.407, 388.786 505.281 C 391.929 506.155, 395.361 507.201, 396.414 507.605 C 399.276 508.704, 397.469 506.287, 394.187 504.627 C 390.586 502.805, 384.287 501.726, 383.614 502.815 M 730.378 510.500 C 730.687 514.350, 731.201 522.450, 731.520 528.500 C 733.699 569.729, 744.712 615.942, 761.287 653.399 L 764.782 661.297 768.352 653.874 C 778.497 632.782, 778.676 606.448, 768.871 577.542 C 763.732 562.391, 756.329 547.621, 741.535 523 C 729.817 503.500, 729.817 503.500, 730.378 510.500 M 405 533 C 405 534.506, 405.522 535.046, 406.750 534.810 C 407.712 534.624, 408.500 533.810, 408.500 533 C 408.500 532.190, 407.712 531.376, 406.750 531.190 C 405.522 530.954, 405 531.494, 405 533 M 622.040 532.500 C 622.001 533.050, 621.075 537.736, 619.982 542.914 C 618.889 548.092, 618.176 552.509, 618.396 552.730 C 619.069 553.402, 623.658 546.697, 624.732 543.474 C 625.517 541.116, 625.339 539.462, 623.926 535.974 C 622.928 533.514, 622.080 531.950, 622.040 532.500 M 315.123 571.500 C 316.435 576.437, 318.009 578.339, 317.978 574.950 C 317.966 573.602, 317.079 571.375, 316.008 570 C 314.060 567.500, 314.060 567.500, 315.123 571.500 M 323.686 618.257 C 302.733 658.490, 303.029 657.798, 300.355 672.673 C 298.513 682.915, 298.014 688.401, 298.429 693.834 C 299.985 714.221, 308.795 730.720, 322.258 738.463 C 326.439 740.868, 333.208 742.125, 334.581 740.752 C 334.827 740.506, 334.150 734.274, 333.077 726.902 C 329.575 702.861, 328.883 690.093, 328.867 649.250 C 328.858 627.112, 328.772 609.003, 328.675 609.007 C 328.579 609.010, 326.334 613.173, 323.686 618.257 M 452.543 609.931 C 451.861 611.035, 452.564 611.500, 456.250 612.381 C 459.773 613.223, 459.921 611.301, 456.435 609.975 C 453.292 608.780, 453.254 608.780, 452.543 609.931 M 710.389 613.500 C 717.117 639.683, 724.009 659.342, 735.456 685 C 747.523 712.048, 752.736 726.771, 755.881 742.690 L 757.622 751.500 767.319 751.304 C 772.653 751.196, 777.463 750.832, 778.008 750.495 C 778.554 750.158, 779 746.764, 779 742.953 C 779 726.604, 768.393 704.154, 745.478 672 C 733.136 654.683, 722.584 637.313, 714.799 621.500 C 712.091 616, 710.107 612.400, 710.389 613.500 M 545.232 632.251 C 540.775 637.888, 534.977 644.300, 532.346 646.500 C 525.005 652.641, 517.083 658, 515.347 658 C 514.165 658, 513.941 658.630, 514.431 660.580 C 516.325 668.126, 519.001 682.622, 519.005 685.360 C 519.010 688.500, 519.010 688.500, 521.559 685.500 C 522.962 683.850, 526.641 678.675, 529.735 674 C 538.472 660.798, 555.532 624.198, 553.769 622.436 C 553.530 622.197, 549.688 626.613, 545.232 632.251 M 308.210 631.750 C 307.599 633.813, 306.831 637.525, 306.502 640 C 306.173 642.475, 305.693 645.625, 305.435 647 C 305.159 648.473, 305.785 647.737, 306.959 645.209 C 308.761 641.331, 310.960 628, 309.798 628 C 309.535 628, 308.821 629.688, 308.210 631.750 M 375.094 698.372 C 374.995 717.164, 376.704 733.088, 379.818 742.394 C 381.458 747.293, 381.735 747.540, 390.855 752.255 C 399.777 756.868, 400.322 757.019, 402.615 755.516 C 404.924 754.004, 404.958 753.819, 403.463 750.928 C 402.606 749.271, 399.958 744.897, 397.579 741.208 C 388.018 726.382, 380.252 707.058, 377 690 C 375.188 680.500, 375.188 680.500, 375.094 698.372 M 500.789 692.739 C 493.310 696.542, 487.812 700.138, 484.500 703.393 C 479.500 708.307, 479.500 708.307, 483.500 709.210 C 486.072 709.790, 488.750 709.735, 491 709.055 C 492.925 708.473, 495.208 708.111, 496.074 708.249 C 497.452 708.469, 514 689.428, 514 687.623 C 514 686.301, 511.701 687.191, 500.789 692.739 M 424.070 693.448 C 424.032 693.970, 425.168 698.245, 426.595 702.948 C 429.511 712.558, 435.582 724.759, 440.037 729.963 C 442.849 733.248, 443.091 733.337, 444.734 731.695 C 446.669 729.760, 446.912 730.261, 439.740 721.389 C 435.011 715.537, 428.143 703.397, 425.515 696.240 C 424.759 694.183, 424.109 692.927, 424.070 693.448 M 585 707.067 C 571.193 710.670, 561.984 716.701, 552.274 728.500 C 535.412 748.989, 524.018 773.795, 520.640 797.375 C 520.085 801.250, 520.085 801.250, 527.293 800.591 C 548.788 798.627, 578.375 792.318, 609 783.168 C 640.849 773.653, 663.503 766.746, 663.843 766.449 C 665.511 764.985, 654.875 741.124, 648.120 731.176 C 633.731 709.987, 609.409 700.698, 585 707.067 M 476.332 714.001 C 471.835 715.814, 457.305 744.826, 454.994 756.604 C 453.031 766.613, 453.987 767.453, 458.854 760 C 463.730 752.534, 476.245 737.285, 487.463 725.142 C 491.710 720.546, 494.806 716.445, 494.342 716.029 C 491.390 713.380, 480.824 712.190, 476.332 714.001 M 296.354 726 C 296.685 730.125, 297.657 736.200, 298.516 739.500 C 300.098 745.580, 305.428 758, 306.455 758 C 306.763 758, 313.147 759.364, 320.642 761.032 C 328.138 762.699, 334.477 763.856, 334.731 763.603 C 334.984 763.349, 334.878 759.379, 334.495 754.781 C 333.798 746.419, 333.798 746.419, 327.787 745.277 C 318.091 743.434, 306.527 734.880, 299.699 724.500 L 295.753 718.500 296.354 726 M 651 724.548 C 651 724.913, 652.285 726.852, 653.855 728.856 C 655.426 730.860, 660.889 739.025, 665.997 747 C 671.104 754.975, 675.646 761.904, 676.089 762.398 C 677.039 763.455, 689.214 761.100, 688.785 759.941 C 688.628 759.518, 682.875 753.389, 676 746.322 C 664.811 734.820, 651 722.791, 651 724.548 M 715.012 724.083 C 715.018 724.313, 715.701 726.975, 716.529 730 C 717.358 733.025, 718.323 739.930, 718.674 745.344 C 719.314 755.187, 719.314 755.187, 722.282 754.594 C 723.914 754.267, 725.615 754, 726.062 754 C 726.944 754, 722.795 741.397, 718.491 731 C 716.036 725.069, 714.980 722.971, 715.012 724.083 M 339.582 737.470 C 340.169 749.385, 343.522 763.859, 346.342 766.644 C 346.979 767.274, 350.200 768.537, 353.500 769.451 C 356.800 770.365, 360.400 771.366, 361.500 771.675 C 363.242 772.165, 363.159 771.867, 360.857 769.369 C 354.613 762.590, 347.283 748.981, 342.347 735 L 338.993 725.500 339.582 737.470 M 473.101 762.481 C 465.182 766.564, 456.996 771.276, 454.910 772.952 C 452.824 774.629, 450.921 776, 450.681 776 C 450.442 776, 450.467 774.034, 450.738 771.630 C 451.667 763.391, 446.760 765.101, 442.500 774.500 C 441.244 777.270, 437.729 781.937, 434.617 784.966 C 431.528 787.972, 429 790.767, 429 791.177 C 429 792.172, 435.436 793.872, 446.963 795.922 L 456.425 797.604 466.478 784.552 C 485.519 759.830, 489.088 755, 488.295 755.029 C 487.858 755.044, 481.020 758.398, 473.101 762.481 M 385.499 759.997 C 388.018 767.137, 395.161 779.981, 397.740 782.010 C 400.016 783.800, 406.982 786.352, 407.682 785.652 C 407.843 785.490, 410.832 781.026, 414.322 775.731 L 420.669 766.105 415.194 760.802 C 409.525 755.313, 409.372 755.593, 414.170 762.680 C 415.727 764.979, 416.986 767.454, 416.968 768.180 C 416.951 768.906, 414.790 771.918, 412.167 774.873 C 407.712 779.894, 407.181 780.199, 404.087 779.519 C 402.265 779.119, 399.026 777.211, 396.888 775.279 C 392.882 771.661, 392.042 768.659, 394.007 764.987 C 394.856 763.400, 394.349 762.655, 390.757 760.223 C 383.780 755.498, 383.914 755.504, 385.499 759.997 M 544.023 771.090 C 539.458 776.866, 538.502 780.370, 542.957 775 C 546.228 771.058, 549.387 766, 548.580 766 C 548.286 766, 546.236 768.290, 544.023 771.090 M 742.500 776.082 C 728.189 777.230, 694.937 782.403, 687.750 784.600 C 686.150 785.089, 686 787.098, 686 808.084 L 686 831.034 690.750 828.623 C 698.384 824.749, 716.723 812.377, 727 804.168 C 736.967 796.207, 757 777.294, 757 775.845 C 757 774.921, 756.972 774.921, 742.500 776.082 M 282.500 781.588 C 291.920 790.132, 320.695 812.615, 331.152 819.603 L 342.500 827.186 342.774 809.450 C 342.924 799.695, 342.834 791.501, 342.574 791.240 C 340.621 789.287, 299.193 780.385, 283.500 778.546 L 278.500 777.960 282.500 781.588 M 663 791.043 C 661.625 791.469, 653.975 793.710, 646 796.024 C 638.025 798.337, 627.337 801.550, 622.250 803.162 L 613 806.094 613 833.158 C 613 860.223, 613 860.223, 616.567 859.553 C 622.711 858.401, 643.017 851.327, 654.820 846.228 L 666.140 841.337 666.464 816.162 C 666.642 802.315, 666.498 790.825, 666.144 790.628 C 665.790 790.431, 664.375 790.618, 663 791.043 M 362 816.986 L 362 836.971 367.764 839.881 C 395.633 853.949, 441.814 867.678, 470.750 870.497 L 478 871.203 478 847.703 L 478 824.203 470.750 823.544 C 446.120 821.306, 419.205 814.888, 373.768 800.418 C 367.866 798.538, 362.804 797, 362.518 797 C 362.233 797, 362 805.994, 362 816.986 M 586.500 813.600 C 566.028 819.419, 527.611 825, 508.028 825 L 498 825 498 849.135 L 498 873.270 523.750 872.701 C 538.317 872.379, 554.494 871.445, 561 870.550 C 572.848 868.919, 588.165 866.304, 591.250 865.386 C 592.859 864.907, 593 862.741, 593 838.433 C 593 823.895, 592.663 812.040, 592.250 812.089 C 591.837 812.139, 589.250 812.818, 586.500 813.600" stroke="none" fill="#050505" fill-rule="evenodd"/>
</svg>
